<?xml version="1.0" encoding="UTF-8"?>
<svg version="1.1" xmlns="http://www.w3.org/2000/svg" width="256" height="256">
<path d="M0 0 C0 2.97 0 5.94 0 9 C-0.66 9 -1.32 9 -2 9 C-2 10.65 -2 12.3 -2 14 C-1.29673584 14.26409668 -0.59347168 14.52819336 0.13110352 14.80029297 C3.19040988 16.07962507 6.00693531 17.57917445 8.90234375 19.1953125 C10.03406006 19.82566406 11.16577637 20.45601562 12.33178711 21.10546875 C13.21663284 21.60119385 13.21663284 21.60119385 14.11935425 22.10693359 C15.94808453 23.13092678 17.77953314 24.14990914 19.61157227 25.16796875 C24.68892512 27.9943292 29.75815282 30.82877861 34.75 33.8046875 C35.71498413 34.37678955 35.71498413 34.37678955 36.69946289 34.96044922 C38.30507495 35.92079423 39.90105313 36.89719732 41.49609375 37.875 C43.85230193 39.15400626 43.85230193 39.15400626 46.03515625 38.93359375 C48.71599796 37.65979421 50.73418043 35.98102877 53 34.0625 C53.95777344 33.26070312 54.91554687 32.45890625 55.90234375 31.6328125 C56.93570522 30.75616151 57.96823032 29.87852388 59 29 C60.65087247 27.59502296 62.30267101 26.19128529 63.95898438 24.79272461 C65.4993416 23.49087885 67.03302436 22.18114824 68.56640625 20.87109375 C71 19 71 19 73 19 C71.38389077 22.92350218 68.68680596 25.71405354 65.8125 28.75 C64.82220339 29.81183523 63.83262134 30.87433732 62.84375 31.9375 C62.11865234 32.71480469 62.11865234 32.71480469 61.37890625 33.5078125 C58.51396616 36.60811594 55.75545992 39.80253797 53 43 C55.08086573 45.23827587 57.08129751 46.76089943 59.7578125 48.2265625 C60.81935547 48.814375 60.81935547 48.814375 61.90234375 49.4140625 C62.63582031 49.81367187 63.36929688 50.21328125 64.125 50.625 C65.5867009 51.42829997 67.04767803 52.23291879 68.5078125 53.0390625 C69.15379395 53.39178223 69.79977539 53.74450195 70.46533203 54.10791016 C72 55 72 55 73 56 C73.14842383 58.76723317 73.23171932 61.51044656 73.2722168 64.2800293 C73.29653023 65.58252373 73.29653023 65.58252373 73.32133484 66.91133118 C73.46165612 74.93182367 73.53965714 82.95343354 73.60025311 90.97488689 C73.64124915 96.36753883 73.70165206 101.75837819 73.80932617 107.15014648 C73.91298904 112.35807793 73.96764154 117.56439174 73.98771095 122.77329445 C74.00366007 124.7585969 74.03692596 126.74383895 74.08786583 128.72855186 C74.46864393 144.31179281 74.46864393 144.31179281 70.84561157 148.47647095 C68.26346231 150.03121377 65.83422893 151.00348096 63 152 C60.74355048 153.52691952 60.74355048 153.52691952 59 155 C59.84304687 155.96421875 60.68609375 156.9284375 61.5546875 157.921875 C62.66167684 159.19772712 63.76843562 160.4737793 64.875 161.75 C65.43058594 162.38421875 65.98617187 163.0184375 66.55859375 163.671875 C67.09355469 164.290625 67.62851563 164.909375 68.1796875 165.546875 C68.67194824 166.11245117 69.16420898 166.67802734 69.67138672 167.26074219 C71.06577551 169.08610524 72.03903147 170.9185661 73 173 C70.02879676 171.6300094 67.63345438 170.03719635 65.109375 167.9609375 C64.40039062 167.38085938 63.69140625 166.80078125 62.9609375 166.203125 C62.23132813 165.59984375 61.50171875 164.9965625 60.75 164.375 C59.63238281 163.45847656 59.63238281 163.45847656 58.4921875 162.5234375 C56.65864503 161.0189924 54.82805754 159.51110107 53 158 C43.54986529 162.93555423 34.24259858 168.08737052 25.01123047 173.42138672 C20.63970341 175.94247302 16.25600283 178.41794611 11.796875 180.78125 C10.56771362 181.43891357 10.56771362 181.43891357 9.3137207 182.10986328 C7.77714441 182.92796031 6.23432082 183.7344755 4.68432617 184.52685547 C-0.0115746 187.0414805 -2.40669726 189.32531922 -5 194 C-8.77826155 192.48869538 -8.77826155 192.48869538 -9.87036133 190.08178711 C-11.28685642 187.4713584 -12.58237397 186.80675252 -15.19921875 185.44140625 C-16.06780518 184.97935791 -16.9363916 184.51730957 -17.83129883 184.04125977 C-18.77384521 183.55326904 -19.7163916 183.06527832 -20.6875 182.5625 C-22.68583609 181.50176948 -24.68320049 180.43920673 -26.6796875 179.375 C-27.71706055 178.82457031 -28.75443359 178.27414063 -29.82324219 177.70703125 C-35.03282216 174.90766273 -40.17222176 171.9866406 -45.3125 169.0625 C-47.16265488 168.01153294 -49.01291085 166.96074381 -50.86328125 165.91015625 C-52.1464624 165.18143311 -52.1464624 165.18143311 -53.45556641 164.43798828 C-57.29156686 162.27007016 -61.14378297 160.13170496 -65 158 C-66.32064453 159.12148438 -66.32064453 159.12148438 -67.66796875 160.265625 C-68.841115 161.26045302 -70.01429382 162.25524265 -71.1875 163.25 C-71.76564453 163.74113281 -72.34378906 164.23226562 -72.93945312 164.73828125 C-74.62194436 166.16412128 -76.31006486 167.58299574 -78 169 C-78.92425781 169.77859375 -79.84851563 170.5571875 -80.80078125 171.359375 C-83 173 -83 173 -85 173 C-83.3867348 169.12266375 -80.85050638 166.48273574 -78 163.4375 C-75.42555742 160.67970322 -73.09363537 158.14045306 -71 155 C-71.50789063 154.68546875 -72.01578125 154.3709375 -72.5390625 154.046875 C-73.22742188 153.61890625 -73.91578125 153.1909375 -74.625 152.75 C-75.29789063 152.33234375 -75.97078125 151.9146875 -76.6640625 151.484375 C-77.43492188 150.99453125 -78.20578125 150.5046875 -79 150 C-80.01987503 149.48653015 -81.03975006 148.9730603 -82.0905304 148.44403076 C-85 146 -85 146 -85.80900574 142.15606689 C-85.86589791 140.57522947 -85.88968055 138.99299207 -85.88745117 137.41113281 C-85.90920914 136.5455777 -85.9309671 135.68002258 -85.9533844 134.78823853 C-86.01548687 131.92604596 -86.03206404 129.06594237 -86.04296875 126.203125 C-86.06479241 124.21017645 -86.087371 122.21723603 -86.110672 120.2243042 C-86.15112246 116.04453458 -86.16622307 111.86550199 -86.16674805 107.68554688 C-86.17172221 102.33923866 -86.26390958 96.99835949 -86.37858105 91.65343094 C-86.45297442 87.53527125 -86.46814645 83.4184125 -86.46703529 79.29964447 C-86.47593974 77.32995447 -86.50598109 75.36023868 -86.55788231 73.39121246 C-86.91821552 58.39913949 -86.91821552 58.39913949 -83.7222023 54.40184021 C-80.22192653 51.38662503 -76.27834786 49.70380479 -72 48 C-70.54756009 47.1929876 -69.10593852 46.36538018 -67.6875 45.5 C-66.800625 45.005 -65.91375 44.51 -65 44 C-68.03237143 40.45207123 -71.07234095 36.91147948 -74.140625 33.39453125 C-75.17708333 32.20052083 -76.21354167 31.00651042 -77.25 29.8125 C-77.77851562 29.20986328 -78.30703125 28.60722656 -78.8515625 27.98632812 C-81.32115826 25.13124978 -83.55953039 22.53969056 -85 19 C-81.99230223 20.38056886 -79.60373447 21.99866568 -77.06640625 24.1171875 C-76.33486328 24.72433594 -75.60332031 25.33148438 -74.84960938 25.95703125 C-74.09486328 26.58996094 -73.34011719 27.22289063 -72.5625 27.875 C-70.3520101 29.71549374 -68.14128659 31.55542102 -65.92236328 33.38574219 C-64.33706669 34.71695644 -62.79996395 36.10534167 -61.27734375 37.5078125 C-59.12756919 39.25782054 -59.12756919 39.25782054 -56.68823242 38.76660156 C-53.72787898 37.92239942 -51.38741376 36.74660173 -48.7109375 35.2265625 C-47.69515625 34.65405762 -46.679375 34.08155273 -45.6328125 33.49169922 C-44.02019531 32.56768311 -44.02019531 32.56768311 -42.375 31.625 C-41.2715625 30.9973877 -40.168125 30.36977539 -39.03125 29.72314453 C-36.77544767 28.43862661 -34.52121337 27.1513511 -32.26855469 25.86132812 C-29.24574181 24.1399414 -26.20896626 22.44753174 -23.1640625 20.765625 C-21.44247079 19.80250783 -19.72110223 18.83899161 -18 17.875 C-17.19997559 17.43881348 -16.39995117 17.00262695 -15.57568359 16.55322266 C-14.84945801 16.14120605 -14.12323242 15.72918945 -13.375 15.3046875 C-12.74335937 14.95390137 -12.11171875 14.60311523 -11.4609375 14.24169922 C-9.59215393 12.6533581 -9.3705891 11.37940737 -9 9 C-9.99 9 -10.98 9 -12 9 C-12 6.03 -12 3.06 -12 0 C-7.44729118 -2.48329572 -4.775353 -1.68541871 0 0 Z M-17.01171875 21.18359375 C-17.61287506 21.51484756 -18.21403137 21.84610138 -18.83340454 22.18739319 C-20.78734488 23.2661812 -22.73755189 24.35151486 -24.6875 25.4375 C-26.01519003 26.17322775 -27.34290811 26.90890487 -28.6706543 27.64453125 C-37.55835189 32.58115982 -46.36491434 37.63103482 -55 43 C-52.34265975 45.69801382 -49.7199224 48.33500884 -46.75 50.6875 C-44 53 -44 53 -43 55 C-41.55754362 54.60082968 -40.12111159 54.17985483 -38.6875 53.75 C-37.48673828 53.40195313 -37.48673828 53.40195313 -36.26171875 53.046875 C-33.87463118 52.17242545 -33.87463118 52.17242545 -32.625 50.03125 C-30.29340292 47.11675365 -27.86249786 46.73415782 -24.3125 45.75 C-22.54326172 45.24726562 -22.54326172 45.24726562 -20.73828125 44.734375 C-19.83464844 44.49203125 -18.93101563 44.2496875 -18 44 C-17.505 45.485 -17.505 45.485 -17 47 C-23.435 48.485 -23.435 48.485 -30 50 C-29.01 51.65 -28.02 53.3 -27 55 C-23.7 54.34 -20.4 53.68 -17 53 C-17.33 53.99 -17.66 54.98 -18 56 C-22.73312687 57.71198206 -27.62342141 58.55243322 -32.5703125 59.4375 C-37.9425843 60.66982307 -37.9425843 60.66982307 -41.80859375 64.42578125 C-42.34613281 65.37839844 -42.88367188 66.33101562 -43.4375 67.3125 C-45.44331594 70.67300644 -47.08587499 73.41812623 -50.25 75.75 C-53.7138897 78.58409157 -54.7179679 80.72655967 -56 85 C-56.0749612 87.16138137 -55.9959856 89.28855813 -55.91015625 91.44921875 C-56.06493106 95.84347747 -56.77143858 103.77143858 -60 107 C-60.10065611 113.49120059 -60.10065611 113.49120059 -57.25 119 C-56.5075 119.66 -55.765 120.32 -55 121 C-52.27570684 125.53505089 -50.04955258 130.12620168 -48.9375 135.3125 C-47.93260547 139.26508515 -46.90685694 141.17619612 -44 144 C-43.23816406 144.29132813 -42.47632813 144.58265625 -41.69140625 144.8828125 C-38.57277429 146.17733898 -36.36440168 147.87090642 -33.75 150 C-32.87859375 150.70125 -32.0071875 151.4025 -31.109375 152.125 C-29 154 -29 154 -28 156 C-25.65092125 156.68931344 -25.65092125 156.68931344 -22.9375 157.125 C-21.55884766 157.37636719 -21.55884766 157.37636719 -20.15234375 157.6328125 C-19.44207031 157.75398437 -18.73179688 157.87515625 -18 158 C-17.505 161.465 -17.505 161.465 -17 165 C-18.42892578 164.7834375 -18.42892578 164.7834375 -19.88671875 164.5625 C-21.14097656 164.376875 -22.39523438 164.19125 -23.6875 164 C-24.92886719 163.814375 -26.17023438 163.62875 -27.44921875 163.4375 C-30.83800607 162.90394481 -30.83800607 162.90394481 -33.609375 163.1875 C-39.0121946 162.76374944 -43.32752999 157.66106483 -47 154 C-48.30276884 152.00193319 -49.21421488 150.11567869 -50.11328125 147.9140625 C-52.07622006 143.67688181 -55.58713662 140.24160721 -59.0625 137.1875 C-62.98264404 132.76153093 -66.37213491 127.05602513 -66.1875 121 C-66.14109375 120.36964844 -66.0946875 119.73929687 -66.046875 119.08984375 C-65.9552051 115.00289414 -66.9490542 110.9352934 -68 107 C-68.33 106.67 -68.66 106.34 -69 106 C-69.49180314 99.36065758 -68.43939406 93.21392973 -66 87 C-65.02815265 85.97261851 -64.02912007 84.97000612 -63 84 C-62.04379892 82.21009734 -62.04379892 82.21009734 -61.375 80.25 C-61.13523437 79.61578125 -60.89546875 78.9815625 -60.6484375 78.328125 C-59.88315806 75.85407253 -59.88315806 75.85407253 -59.69921875 72.60546875 C-58.86079154 68.28218205 -57.31891882 66.34975246 -54.4375 63.0625 C-53.61121094 62.10472656 -52.78492187 61.14695313 -51.93359375 60.16015625 C-51.29550781 59.44730469 -50.65742187 58.73445313 -50 58 C-50.75667969 57.24332031 -51.51335937 56.48664063 -52.29296875 55.70703125 C-55.1953125 52.8046875 -58.09765625 49.90234375 -61 47 C-68.33698968 49.93479587 -75.11265346 54.12586757 -82 58 C-82 86.38 -82 114.76 -82 144 C-77.38 146.64 -72.76 149.28 -68 152 C-63.69429691 148.60546987 -63.69429691 148.60546987 -60.1875 144.75 C-59.1046875 143.38875 -59.1046875 143.38875 -58 142 C-54.125 145.75 -54.125 145.75 -53 148 C-53.8353125 148.3403125 -53.8353125 148.3403125 -54.6875 148.6875 C-57.6278734 150.35636058 -59.6502353 152.58788665 -62 155 C-49.87377374 161.94686325 -37.73121727 168.86348455 -25.55444336 175.72143555 C-24.18171265 176.49547729 -24.18171265 176.49547729 -22.78125 177.28515625 C-21.5756543 177.96396851 -21.5756543 177.96396851 -20.34570312 178.65649414 C-18.65229775 179.62639524 -16.98144315 180.63604002 -15.32617188 181.66967773 C-13.15726151 183.16548102 -13.15726151 183.16548102 -11 183 C-11.10828125 182.02740234 -11.10828125 182.02740234 -11.21875 181.03515625 C-12.35299141 169.04685472 -12.09139579 157.0290918 -12 145 C-10.56359829 144.80426392 -9.12580496 144.61872184 -7.6875 144.4375 C-6.48673828 144.28087891 -6.48673828 144.28087891 -5.26171875 144.12109375 C-3 144 -3 144 0 145 C0.20638953 170.76376337 0.20638953 170.76376337 -1 183 C2.27756052 181.73926126 5.37144083 180.34670898 8.45703125 178.671875 C9.73876221 177.97626465 9.73876221 177.97626465 11.04638672 177.26660156 C11.9592041 176.76612305 12.87202148 176.26564453 13.8125 175.75 C14.76141113 175.23147461 15.71032227 174.71294922 16.68798828 174.17871094 C27.9172731 168.00306188 38.96548672 161.51550666 50 155 C45.98642993 150.81525056 45.98642993 150.81525056 41 148 C42.32 146.02 43.64 144.04 45 142 C48.99926986 144.97088618 51.92118304 148.12948725 55 152 C56.93873142 151.04416032 58.8759433 150.08523808 60.8125 149.125 C61.89144531 148.59132812 62.97039062 148.05765625 64.08203125 147.5078125 C67.07838265 146.02778861 67.07838265 146.02778861 70 144 C70.38683351 141.28340727 70.57534812 138.78261991 70.64208984 136.05297852 C70.67304749 135.23154861 70.70400513 134.41011871 70.73590088 133.563797 C70.83099838 130.83567739 70.89993981 128.10799427 70.9609375 125.37890625 C70.98190113 124.44566969 71.00286476 123.51243313 71.02446365 122.55091667 C71.12820164 117.6041748 71.20657673 112.65761484 71.27001953 107.71020508 C71.3278016 103.62463961 71.43889064 99.5459819 71.59814453 95.46313477 C73.48730993 74.5427531 73.48730993 74.5427531 68.12854004 55.01141357 C63.53316462 50.52931725 57.52366549 47.27401096 51 47 C47.4355313 48.36911554 45.69626006 50.35896538 43.25 53.25 C39.68413598 56.97673007 39.68413598 56.97673007 36.703125 57.078125 C34.5 56.5 34.5 56.5 31 55 C34.80411834 51.08060535 38.81576108 47.50897269 43 44 C40.57490424 41.29626764 37.97007763 39.71131399 34.80078125 37.9609375 C33.76308594 37.38424316 32.72539062 36.80754883 31.65625 36.21337891 C30.5528125 35.60671387 29.449375 35.00004883 28.3125 34.375 C26.048069 33.11998667 23.7837462 31.86477809 21.51953125 30.609375 C20.4104541 29.99642578 19.30137695 29.38347656 18.15869141 28.75195312 C13.25584133 26.03261071 8.37937592 23.26682686 3.5090332 20.48974609 C0.90856464 18.75090754 0.90856464 18.75090754 -2 18 C-2.02685938 20.14576637 -2.04633088 22.29162645 -2.0625 24.4375 C-2.07410156 25.63246094 -2.08570313 26.82742187 -2.09765625 28.05859375 C-2.33901792 30.88873341 -2.33901792 30.88873341 -1 32 C3.84034716 32.16407956 8.23258627 31.95348275 13 31 C13 34.3 13 37.6 13 41 C11.02 41 9.04 41 7 41 C7 40.34 7 39.68 7 39 C5.02 39 3.04 39 1 39 C-0.54897985 42.0979597 0.16760461 45.26216552 0.4375 48.625 C0.48970703 49.33140625 0.54191406 50.0378125 0.59570312 50.765625 C0.72541207 52.51079987 0.86204954 54.25545725 1 56 C0.40832031 55.91621094 -0.18335938 55.83242187 -0.79296875 55.74609375 C-1.58316406 55.64425781 -2.37335938 55.54242188 -3.1875 55.4375 C-3.96480469 55.33308594 -4.74210937 55.22867188 -5.54296875 55.12109375 C-8.19912494 54.99018621 -10.42241629 55.3819293 -13 56 C-12.87431641 54.28490234 -12.87431641 54.28490234 -12.74609375 52.53515625 C-12.64295206 51.04428998 -12.54010253 49.55340347 -12.4375 48.0625 C-12.38142578 47.30775391 -12.32535156 46.55300781 -12.26757812 45.77539062 C-12.13823843 43.85254042 -12.06483088 41.92610452 -12 40 C-13.01661658 38.76931014 -13.01661658 38.76931014 -15.125 38.8125 C-18.6127577 39.03996246 -21.67387462 39.95650968 -25 41 C-25 37.7 -25 34.4 -25 31 C-24.195625 31.165 -23.39125 31.33 -22.5625 31.5 C-18.31104843 32.09669496 -14.29143749 32.06502178 -10 32 C-9.67 27.38 -9.34 22.76 -9 18 C-12.14369409 18 -14.28038506 19.67377043 -17.01171875 21.18359375 Z M-49.9453125 61.8984375 C-50.66460937 62.71570313 -51.38390625 63.53296875 -52.125 64.375 C-52.84945312 65.18710938 -53.57390625 65.99921875 -54.3203125 66.8359375 C-56.20438352 68.80674914 -56.20438352 68.80674914 -56 71 C-55.360625 71.12375 -54.72125 71.2475 -54.0625 71.375 C-53.381875 71.58125 -52.70125 71.7875 -52 72 C-51.67 72.66 -51.34 73.32 -51 74 C-49.82767315 72.3790787 -48.6622923 70.75313167 -47.5 69.125 C-46.8503125 68.22007813 -46.200625 67.31515625 -45.53125 66.3828125 C-43.81979394 64.19164492 -43.81979394 64.19164492 -44 62 C-44.66 62 -45.32 62 -46 62 C-46 61.34 -46 60.68 -46 60 C-48.21446503 59.76718947 -48.21446503 59.76718947 -49.9453125 61.8984375 Z M-64 89 C-64.53251766 90.91345327 -65.05059483 92.8309295 -65.5625 94.75 C-65.85253906 95.81734375 -66.14257812 96.8846875 -66.44140625 97.984375 C-66.97098494 100.84335927 -66.98370862 102.31597383 -66 105 C-64.35 104.67 -62.7 104.34 -61 104 C-59.27071163 97.08840962 -59.27071163 97.08840962 -59 90 C-60.65 89.67 -62.3 89.34 -64 89 Z M-63 125 C-61.02 128.63 -59.04 132.26 -57 136 C-55.35 135.34 -53.7 134.68 -52 134 C-53.98 130.04 -55.96 126.08 -58 122 C-59.7 121.9 -59.7 121.9 -63 125 Z M-42 148 C-43.03013277 149.64821244 -44.03114628 151.31503702 -45 153 C-43.59310148 154.17842782 -42.17406375 155.34237398 -40.75 156.5 C-39.96109375 157.1496875 -39.1721875 157.799375 -38.359375 158.46875 C-35.90957006 160.36293496 -35.90957006 160.36293496 -32 160 C-31.67 158.68 -31.34 157.36 -31 156 C-32.64346698 154.66375099 -34.28983686 153.33107149 -35.9375 152 C-36.85402344 151.2575 -37.77054688 150.515 -38.71484375 149.75 C-40.65261062 147.89866599 -40.65261062 147.89866599 -42 148 Z " fill="#FFFFFF" transform="translate(134,33)"/>
<path d="M0 0 C3.78262776 3.21245225 6.74369071 6.8619186 9.6171875 10.89453125 C11.15806744 13.05936863 11.15806744 13.05936863 14.125 14.8125 C15.53502983 19.04258948 15.47543775 23.32103567 15.64257812 27.74414062 C15.85898087 32.10894318 16.62258363 35.72258876 18.125 39.8125 C18.60171304 44.48428783 17.9490414 47.04711147 15.125 50.8125 C12.125 52.8125 12.125 52.8125 8.125 52.8125 C8.5890625 51.760625 8.5890625 51.760625 9.0625 50.6875 C10.15802678 47.72313343 10.68922992 44.93551892 11.125 41.8125 C7.18660651 42.04417021 4.61068055 42.50631009 1.25 44.625 C-1.92693032 49.39039548 -1.77645177 54.19525061 -1.875 59.8125 C-3.75 60.4375 -3.75 60.4375 -5.875 60.8125 C-7.875 58.8125 -7.875 58.8125 -8.75 55.375 C-9.93452397 51.62400742 -10.51250772 50.6465867 -13.875 48.8125 C-19.782458 46.84334733 -26.40312695 47.15039115 -32.375 48.75 C-35.55838895 51.37629589 -36.50984287 53.9950376 -37.8203125 57.8515625 C-38.875 59.8125 -38.875 59.8125 -40.9921875 60.5859375 C-41.61351563 60.66070312 -42.23484375 60.73546875 -42.875 60.8125 C-44.20812267 58.14625465 -44.02316524 55.91252973 -44.125 52.9375 C-44.44221357 48.08538908 -44.44221357 48.08538908 -47.125 44.125 C-49.76753929 42.86378807 -51.97213198 42.14425635 -54.875 41.8125 C-55.5628236 44.16617713 -55.5628236 44.16617713 -55.875 46.8125 C-55.215 47.8025 -54.555 48.7925 -53.875 49.8125 C-53.875 50.8025 -53.875 51.7925 -53.875 52.8125 C-57.69597239 52.28180939 -59.93671403 51.31548434 -62.875 48.8125 C-62.689375 48.008125 -62.50375 47.20375 -62.3125 46.375 C-62.168125 45.529375 -62.02375 44.68375 -61.875 43.8125 C-62.205 43.4825 -62.535 43.1525 -62.875 42.8125 C-62.78027344 41.07128906 -62.78027344 41.07128906 -62.484375 38.828125 C-62.08431335 35.60979465 -61.74962335 32.40655809 -61.515625 29.171875 C-61.38541667 27.63541667 -61.25520833 26.09895833 -61.125 24.5625 C-61.07601562 23.78648438 -61.02703125 23.01046875 -60.9765625 22.2109375 C-60.47207981 16.73636604 -59.16724991 14.51085369 -54.875 10.8125 C-54.545 9.8225 -54.215 8.8325 -53.875 7.8125 C-53.215 7.8125 -52.555 7.8125 -51.875 7.8125 C-51.61847656 7.214375 -51.36195312 6.61625 -51.09765625 6 C-47.15690165 -1.05055136 -37.81438906 -4.66768798 -30.4375 -6.9375 C-19.49965362 -8.00460696 -9.11197402 -6.67487024 0 0 Z M-51.0625 15.5 C-53.77978247 18.96687763 -53.23528235 21.48911181 -52.875 25.8125 C-46.31536322 27.58537481 -39.10824947 26.61710435 -33.1875 23.3125 C-31.08659575 19.31077761 -31.57093651 15.23831296 -31.875 10.8125 C-38.67068994 10.56627935 -45.07218575 12.32865716 -51.0625 15.5 Z M-13.875 10.8125 C-13.92947047 12.22873216 -13.96800508 13.64558191 -14 15.0625 C-14.02320313 15.85140625 -14.04640625 16.6403125 -14.0703125 17.453125 C-13.85383502 20.06817293 -13.28721964 21.61195227 -11.875 23.8125 C-6.45303895 26.52348052 0.13662435 26.69142864 6.125 26.8125 C7.5534032 25.59559459 7.5534032 25.59559459 7.5 22 C7.43189611 18.82181834 7.32680613 18.06139423 5.25 15.5 C-0.74059694 12.26507765 -7.00867139 10.27042143 -13.875 10.8125 Z M-23.875 16.8125 C-27.48982935 21.12697374 -29.01922653 23.86086977 -28.9375 29.5 C-28.92847656 30.30824219 -28.91945312 31.11648437 -28.91015625 31.94921875 C-28.89855469 32.56410156 -28.88695312 33.17898437 -28.875 33.8125 C-24.66995242 35.01394217 -21.08004758 35.01394217 -16.875 33.8125 C-15.18769849 28.46937855 -16.63976695 24.88343015 -18.57421875 19.88671875 C-19.69472845 17.63117818 -19.69472845 17.63117818 -22.01953125 17.01953125 C-22.63183594 16.95121094 -23.24414062 16.88289063 -23.875 16.8125 Z " fill="#FFFFFF" transform="translate(150.875,97.1875)"/>
<path d="M0 0 C6.07651755 0.63963343 13.0388622 2.52060913 17.80078125 6.5078125 C19 8 19 8 19 10 C19.804375 10.2475 20.60875 10.495 21.4375 10.75 C22.613125 11.1625 23.78875 11.575 25 12 C25.68835938 12.19851562 26.37671875 12.39703125 27.0859375 12.6015625 C34.70749581 15.24905118 39.17142644 21.06925634 43 28 C43.68359375 31.71484375 43.68359375 31.71484375 44 35 C44.6469365 36.6744239 45.30959426 38.34302621 46 40 C46 40.99 46 41.98 46 43 C46.62390625 43.22300781 47.2478125 43.44601563 47.890625 43.67578125 C51.43236698 45.89920816 51.53539368 49.29037523 52.46484375 53.17578125 C53.54510377 58.87671553 53.20675246 62.72831357 51 68 C49.93643502 72.47615476 49.07794305 76.90879737 48.75 81.5 C47.50239947 87.32213579 44.21521576 92.78478424 40 97 C39.01 97 38.02 97 37 97 C36.731875 97.7425 36.46375 98.485 36.1875 99.25 C35 102 35 102 33.5625 103.875 C31.79901129 106.04128236 31.79901129 106.04128236 30.9375 109.25 C28.77759207 114.61493261 23.71686599 117.94484194 19 121 C15.27075087 122.40741385 11.19868254 122.33483494 7.25 122.5625 C6.55261719 122.60568359 5.85523438 122.64886719 5.13671875 122.69335938 C3.42468078 122.79889596 1.71236439 122.8998991 0 123 C0 120.36 0 117.72 0 115 C0.59167969 114.91363281 1.18335938 114.82726562 1.79296875 114.73828125 C7.46391455 113.72990753 10.14135276 112.46790733 14 108 C17.80449105 104.39900498 21.0524251 101.83767068 26 100 C26.66 99.01 27.32 98.02 28 97 C26.73113036 95.87278564 25.45982438 94.74831342 24.1875 93.625 C23.47980469 92.99851562 22.77210938 92.37203125 22.04296875 91.7265625 C19.91196181 89.859401 19.91196181 89.859401 17 88 C16.70703125 84.9609375 16.70703125 84.9609375 16.8125 81.375 C16.83957031 80.18648438 16.86664063 78.99796875 16.89453125 77.7734375 C16.92933594 76.85820312 16.96414062 75.94296875 17 75 C20.90285767 76.58667578 23.33520982 79.13350481 26.25 82.125 C27.58804688 83.49011719 27.58804688 83.49011719 28.953125 84.8828125 C29.96632812 85.93082031 29.96632812 85.93082031 31 87 C31.47050781 86.21753906 31.94101563 85.43507813 32.42578125 84.62890625 C33.04839844 83.61699219 33.67101562 82.60507813 34.3125 81.5625 C35.23482422 80.04849609 35.23482422 80.04849609 36.17578125 78.50390625 C38 76 38 76 41 75 C42.12380606 67.63433134 42.1017568 62.8000053 39 56 C37.85432859 52.32646006 37.99711484 49.02739727 38.16015625 45.21875 C37.97832341 42.69969999 37.15863715 41.21731344 36 39 C36 38.01 36 37.02 36 36 C35.27425781 35.79246094 34.54851562 35.58492187 33.80078125 35.37109375 C30.14579692 33.58183364 28.57834551 31.33355729 26.1875 28.0625 C25.78080078 27.52431641 25.37410156 26.98613281 24.95507812 26.43164062 C22 22.40379464 22 22.40379464 22 19 C19.0994524 18.24159994 16.19912732 17.66035114 13.25 17.125 C8.5818139 16.21075584 4.40076596 14.79290465 0 13 C0 11.68 0 10.36 0 9 C5.445 10.485 5.445 10.485 11 12 C11.33 10.68 11.66 9.36 12 8 C8.04 6.68 4.08 5.36 0 4 C0 2.68 0 1.36 0 0 Z M30 18 C29.67 18.66 29.34 19.32 29 20 C28.01 20.66 27.02 21.32 26 22 C28.64 25.3 31.28 28.6 34 32 C35.65 30.68 37.3 29.36 39 28 C37.69118353 26.33043913 36.37785174 24.66441696 35.0625 23 C34.33160156 22.071875 33.60070312 21.14375 32.84765625 20.1875 C31.93306641 19.1046875 31.93306641 19.1046875 31 18 C30.67 18 30.34 18 30 18 Z M41 47 C41.28382946 48.75128818 41.57739529 50.50100003 41.875 52.25 C42.03742188 53.22453125 42.19984375 54.1990625 42.3671875 55.203125 C42.94855848 57.77264117 43.70840265 59.72071056 45 62 C46.65 61.67 48.3 61.34 50 61 C49.5520266 58.68547078 49.09133539 56.37339961 48.625 54.0625 C48.36976563 52.77472656 48.11453125 51.48695312 47.8515625 50.16015625 C47.57054687 49.11730469 47.28953125 48.07445312 47 47 C44.50907189 45.75453595 43.58919267 46.2232422 41 47 Z M40 79 C38.99491199 80.78881736 37.99607264 82.58114696 37 84.375 C36.443125 85.37273437 35.88625 86.37046875 35.3125 87.3984375 C33.84985732 89.81195509 33.84985732 89.81195509 34 92 C34.99 92 35.98 92 37 92 C37.33 92.66 37.66 93.32 38 94 C38.96125903 92.58531689 39.91888325 91.1681636 40.875 89.75 C41.40867187 88.96109375 41.94234375 88.1721875 42.4921875 87.359375 C43.81822015 85.28444308 44.94928175 83.22385028 46 81 C44.02 80.34 42.04 79.68 40 79 Z M30 89 C30 90.65 30 92.3 30 94 C30.33 94 30.66 94 31 94 C31 92.35 31 90.7 31 89 C30.67 89 30.34 89 30 89 Z M29 94 C30 96 30 96 30 96 Z M22 106 C17.545 109.465 17.545 109.465 13 113 C13.33 114.65 13.66 116.3 14 118 C17.70503641 117.39665691 19.85968148 115.77525763 22.75 113.4375 C23.54921875 112.79683594 24.3484375 112.15617187 25.171875 111.49609375 C25.77515625 111.00238281 26.3784375 110.50867188 27 110 C25.35 108.68 23.7 107.36 22 106 Z " fill="#FFFFFF" transform="translate(139,76)"/>
<path d="M0 0 C2.31316656 1.69389362 3.83186747 3.02005597 4.33007812 5.92382812 C4.3934207 8.21029088 4.34853117 10.46483482 4.25 12.75 C4.23195313 13.54277344 4.21390625 14.33554688 4.1953125 15.15234375 C4.14833082 17.10208348 4.07659044 19.05119878 4 21 C7.24991553 20.28515597 7.24991553 20.28515597 8.625 17.1875 C11.81783146 12.90238409 14.87954077 11.35631212 20 10 C27.65899072 9.00188685 34.45785571 9.69850555 41 14 C45 18.09756098 45 18.09756098 45 21 C45.99 21 46.98 21 48 21 C47.96519531 19.90300781 47.93039063 18.80601562 47.89453125 17.67578125 C47.86638135 16.22136955 47.83908248 14.7669412 47.8125 13.3125 C47.78736328 12.59126953 47.76222656 11.87003906 47.73632812 11.12695312 C47.67327543 6.52410662 48.22183542 3.69692767 51 0 C51.66 0.33 52.32 0.66 53 1 C53.08847317 4.45816686 53.14087725 7.91603579 53.1875 11.375 C53.21263672 12.34050781 53.23777344 13.30601562 53.26367188 14.30078125 C53.33011495 20.90079299 52.67300194 26.89816121 50 33 C47.6875 35.25 47.6875 35.25 45 36 C41.88716097 35.42086716 39.45715983 34.25822509 36.7109375 32.70703125 C31.57294379 29.86761368 27.97484298 28.27982573 22.09375 29.3359375 C19.94302402 30.01807074 18.23543849 30.89018224 16.3125 32.0625 C12.78519438 34.12564102 10.9992713 34.39017281 7 34 C7.66 32.68 8.32 31.36 9 30 C6.36 30 3.72 30 1 30 C-0.77285084 23.24100617 -1.19269646 16.88841147 -1.1875 9.9375 C-1.18814453 9.07987061 -1.18878906 8.22224121 -1.18945312 7.33862305 C-1.1347441 1.1347441 -1.1347441 1.1347441 0 0 Z M10 27 C9.67 27.66 9.34 28.32 9 29 C9.99 28.67 10.98 28.34 12 28 C11.34 27.67 10.68 27.34 10 27 Z " fill="#FFFFFF" transform="translate(102,146)"/>
<path d="M0 0 C1.21642589 12.18115367 1.21642589 12.18115367 -1.640625 16.453125 C-4.90413616 19.32984965 -7.69315887 21.17549213 -12 22 C-13.88630207 18.81686526 -14.61529504 16.68142913 -14 13 C-12.11104783 10.46011996 -9.8650871 8.35024411 -7.5625 6.1875 C-6.95083984 5.59001953 -6.33917969 4.99253906 -5.70898438 4.37695312 C-1.18196429 0 -1.18196429 0 0 0 Z " fill="#FFFFFF" transform="translate(100,150)"/>
<path d="M0 0 C2.375 0.625 2.375 0.625 5 2 C6.3125 5.125 6.3125 5.125 7 8 C2.31908701 8 1.37898396 7.00354129 -2 4 C-1.34 2.68 -0.68 1.36 0 0 Z " fill="#FFFFFF" transform="translate(155,95)"/>
<path d="M0 0 C1.32 0.66 2.64 1.32 4 2 C4 2.66 4 3.32 4 4 C1.1875 6.6875 1.1875 6.6875 -2 9 C-2.99 8.67 -3.98 8.34 -5 8 C-3.375 2.25 -3.375 2.25 0 0 Z " fill="#FFFFFF" transform="translate(99,95)"/>
</svg>
